<svg viewBox="0 0 686 686" xmlns="http://www.w3.org/2000/svg" xml:space="preserve" style="fill-rule:evenodd;clip-rule:evenodd;stroke-linecap:round;stroke-linejoin:round;stroke-miterlimit:1.5">
	<path style="fill:none" d="M350.61 1604.9h898.687v898.687H350.61z" transform="matrix(.76227 0 0 .76227 -267.258 -1223.36)" />
	<path d="M792.985 1864.97s-5.235-39.39-59.208-59.21" style="fill:none;stroke:#656565;stroke-width:41.67px" transform="rotate(-45 -1449.31 1813.318)" />
	<path d="M792.985 1864.97s-5.235-39.39-59.208-59.21" style="fill:none;stroke:#656565;stroke-width:41.67px" transform="scale(-1 1) rotate(45 2309.258 -262.775)" />
	<path d="M685.828 1968.48s-83.607 8.09-102.487-96.5" style="fill:none;stroke:#656565;stroke-width:41.67px" transform="rotate(-45 -1447.81 1816.937)" />
	<path d="M685.828 1968.48s-83.607 8.09-102.487-96.5" style="fill:none;stroke:#656565;stroke-width:41.67px" transform="scale(1 -1) rotate(45 3477.976 223.39)" />
	<path d="M530.899 1991.11s56.195 80.83 146.153 51.55" style="fill:none;stroke:#656565;stroke-width:41.67px" transform="rotate(-45 -1447.81 1816.937)" />
	<path d="M685.828 1968.48s-83.607 8.09-102.487-96.5" style="fill:none;stroke:#656565;stroke-width:41.67px" transform="scale(-1 1) rotate(45 2308.527 -261.01)" />
	<path d="M685.828 1968.48s-83.607 8.09-102.487-96.5" style="fill:none;stroke:#656565;stroke-width:41.67px" transform="scale(-1) rotate(-45 -2617.253 2301.336)" />
	<path d="M530.899 1991.11s56.195 80.83 146.153 51.55" style="fill:none;stroke:#656565;stroke-width:41.67px" transform="scale(-1 1) rotate(45 2308.527 -261.01)" />
	<path d="M8.789-42.236c0 17.138 13.916 31.006 31.055 31.006a30.654 30.654 0 0 0 17.676-5.567L75.684 1.416c1.025.977 2.295 1.416 3.613 1.416 2.832 0 4.883-2.148 4.883-4.98 0-1.368-.537-2.588-1.367-3.516L64.746-23.779c3.858-5.176 6.104-11.524 6.104-18.457 0-17.139-13.868-31.055-31.006-31.055-17.139 0-31.055 13.916-31.055 31.055Zm7.52 0a23.486 23.486 0 0 1 23.535-23.536c12.988 0 23.535 10.499 23.535 23.536 0 12.988-10.547 23.535-23.535 23.535-13.037 0-23.535-10.547-23.535-23.535Z" style="fill:#b3b3b3;fill-rule:nonzero" transform="matrix(6.51499 0 0 6.51499 90.294 627.249)" />
</svg>
